<svg width="41" height="41" viewBox="0 0 41 41" fill="none" xmlns="http://www.w3.org/2000/svg">
<path fill-rule="evenodd" clip-rule="evenodd" d="M25.1977 1.94583L39.0542 15.8023C41.6486 18.3968 41.6486 22.6032 39.0542 25.1977L25.1977 39.0542C22.6032 41.6486 18.3968 41.6486 15.8023 39.0542L1.94583 25.1977C-0.648611 22.6032 -0.648611 18.3968 1.94583 15.8023L15.8023 1.94583C18.3968 -0.648611 22.6032 -0.648611 25.1977 1.94583Z" fill="#1B3E67"/>
<path d="M19.8389 8.27498C17.7283 8.58415 15.8019 9.64991 14.4186 11.2738C13.0353 12.8977 12.2893 14.969 12.3196 17.102V30.5129C12.3196 30.6519 12.3606 30.7877 12.4375 30.9034C12.5143 31.0192 12.6237 31.1096 12.7518 31.1634C12.8798 31.2172 13.021 31.232 13.1574 31.2059C13.2939 31.1798 13.4196 31.114 13.5188 31.0167L19.3772 25.2613C21.6382 25.6721 24.1738 25.3465 26.9187 22.5784C27.7678 21.7714 28.4373 20.7946 28.8835 19.7115C29.3297 18.6284 29.5427 17.4635 29.5085 16.2926C29.4372 15.1173 29.1256 13.9692 28.5928 12.9193C28.0601 11.8693 27.3175 10.9399 26.4112 10.1883C25.5048 9.43684 24.4539 8.87929 23.3235 8.55018C22.193 8.22107 21.0071 8.12741 19.8389 8.27498ZM20.9218 22.5109C19.4095 22.5109 17.9591 21.9101 16.8897 20.8407C15.8203 19.7713 15.2195 18.3209 15.2195 16.8085C15.2195 15.2962 15.8203 13.8458 16.8897 12.7764C17.9591 11.707 19.4095 11.1062 20.9218 11.1062C22.4342 11.1062 23.8846 11.707 24.954 12.7764C26.0234 13.8458 26.6242 15.2962 26.6242 16.8085C26.6242 18.3209 26.0234 19.7713 24.954 20.8407C23.8846 21.9101 22.4342 22.5109 20.9218 22.5109Z" fill="#EDEEEF"/>
</svg>
